<?xml version="1.0" standalone="no"?>
<!DOCTYPE svg PUBLIC "-//W3C//DTD SVG 20010904//EN"
 "http://www.w3.org/TR/2001/REC-SVG-20010904/DTD/svg10.dtd">
<svg version="1.0" xmlns="http://www.w3.org/2000/svg"
 width="600.000000pt" height="608.000000pt" viewBox="0 0 600.000000 608.000000"
 preserveAspectRatio="xMidYMid meet">
<g transform="translate(0.000000,608.000000) scale(0.100000,-0.100000)"
fill="#ffffff" stroke="#ffffff" stroke-width="250" stroke-linejoin="round" stroke-linecap="round">
<path d="M2715 5373 c-38 -21 -42 -25 -95 -103 -25 -36 -47 -67 -50 -70 -3 -3
-25 -34 -48 -69 -62 -91 -85 -123 -100 -140 -8 -8 -25 -32 -38 -53 -34 -53
-74 -76 -133 -74 -40 2 -58 9 -112 49 -74 55 -124 72 -165 57 -24 -10 -116
-79 -179 -137 -11 -10 -41 -35 -67 -56 -26 -21 -53 -43 -60 -50 -7 -7 -44 -38
-83 -69 -38 -31 -83 -69 -99 -83 -16 -14 -32 -25 -35 -25 -3 0 -22 -15 -41
-33 -19 -18 -60 -52 -90 -77 -30 -25 -57 -47 -60 -50 -3 -3 -52 -44 -110 -90
-58 -47 -111 -90 -118 -97 -7 -7 -34 -29 -60 -50 -25 -21 -57 -47 -69 -58 -12
-11 -28 -24 -35 -30 -69 -53 -148 -120 -148 -125 0 -3 -12 -13 -28 -22 -15 -9
-39 -27 -53 -40 -15 -13 -35 -30 -45 -38 -96 -77 -193 -163 -198 -176 -9 -24
-7 -122 3 -128 5 -3 11 -16 14 -28 2 -13 16 -54 31 -93 14 -38 26 -78 26 -87
0 -10 5 -18 10 -18 6 0 10 -13 10 -29 0 -17 5 -33 10 -36 6 -3 10 -15 10 -26
0 -10 5 -19 10 -19 6 0 10 -13 10 -30 0 -16 5 -30 10 -30 6 0 10 -13 10 -30 0
-16 4 -30 9 -30 5 0 11 -12 14 -27 10 -51 24 -98 39 -133 20 -45 30 -71 34
-90 1 -8 39 -121 84 -250 45 -129 88 -257 97 -285 8 -27 19 -58 24 -67 5 -10
9 -24 9 -32 0 -8 9 -31 19 -53 10 -21 24 -58 31 -83 16 -58 26 -80 55 -116 22
-27 28 -29 91 -28 42 0 69 5 72 12 2 7 11 12 21 12 9 0 55 16 101 36 47 19 90
37 95 38 20 6 128 52 157 67 10 5 26 9 36 9 10 0 22 4 28 9 5 5 37 19 72 31
34 13 65 27 68 31 3 5 16 9 30 9 13 0 24 5 24 10 0 6 9 10 19 10 11 0 23 5 26
10 3 6 17 10 31 10 13 0 24 3 24 8 0 4 17 13 38 20 91 33 102 37 102 44 0 5 9
8 20 8 11 0 28 4 38 9 32 16 67 30 82 33 8 2 17 5 20 8 9 10 210 90 225 90 22
0 28 20 13 38 -37 43 -116 217 -138 299 -5 21 -17 63 -26 93 -9 30 -20 80 -24
110 -4 30 -10 62 -13 70 -7 19 -19 211 -17 270 3 111 21 265 45 375 18 80 80
253 126 345 47 97 138 240 191 301 13 15 32 38 43 52 48 60 110 120 187 183
46 38 85 72 86 76 2 4 9 8 15 8 6 0 20 8 31 19 12 10 41 29 66 42 25 13 47 27
50 30 10 11 172 89 186 89 8 0 14 5 14 10 0 6 7 10 15 10 9 0 35 9 57 20 23
11 52 20 64 20 13 0 26 5 29 10 3 6 22 10 41 10 19 0 34 4 34 9 0 6 23 11 51
13 l51 3 -29 30 c-15 17 -44 53 -63 80 -19 28 -37 52 -40 55 -3 3 -28 33 -54
68 -27 36 -62 69 -80 76 -50 21 -101 36 -124 36 -11 0 -23 4 -26 9 -3 5 -20
11 -38 14 -41 6 -212 52 -225 60 -5 3 -23 9 -39 12 -67 14 -100 13 -129 -2z
m119 -31 c6 -5 29 -9 51 -11 22 -1 44 -7 50 -12 5 -5 19 -9 32 -9 13 0 23 -3
23 -8 0 -4 26 -13 58 -19 100 -22 157 -40 142 -46 -8 -3 -1 -3 16 0 18 3 35 0
38 -6 4 -6 17 -11 29 -11 25 0 80 -55 124 -122 15 -23 30 -45 33 -48 23 -20
61 -81 55 -90 -3 -5 -20 -10 -36 -10 -17 0 -28 -4 -25 -9 3 -5 -7 -11 -22 -14
-80 -16 -172 -44 -166 -50 7 -6 -18 -11 -38 -8 -5 0 -8 -3 -8 -9 0 -5 -9 -10
-20 -10 -11 0 -20 -4 -20 -9 0 -5 -14 -11 -30 -15 -17 -3 -43 -14 -58 -24 -86
-60 -143 -92 -152 -87 -6 4 -9 3 -8 -2 2 -4 -1 -9 -6 -10 -5 0 -13 -8 -18 -17
-5 -9 -16 -16 -23 -16 -8 0 -15 -3 -15 -8 0 -4 -11 -14 -24 -22 -28 -17 -136
-111 -175 -153 -14 -15 -45 -48 -68 -72 -24 -24 -43 -48 -43 -54 0 -6 -4 -11
-10 -11 -5 0 -10 -5 -10 -11 0 -5 -13 -24 -30 -42 -16 -18 -30 -35 -30 -39 0
-5 -15 -29 -34 -55 -18 -27 -41 -64 -51 -83 -10 -19 -21 -37 -24 -40 -8 -7
-52 -110 -58 -137 -3 -13 -9 -23 -14 -23 -5 0 -9 -9 -9 -20 0 -10 -7 -36 -16
-57 -30 -68 -33 -77 -39 -121 -4 -23 -11 -40 -15 -37 -5 3 -12 0 -16 -6 -4 -8
-3 -9 4 -5 14 9 15 -14 2 -69 -19 -86 -21 -105 -27 -273 -5 -156 5 -321 24
-372 11 -29 13 -35 22 -85 6 -27 19 -74 30 -103 11 -29 20 -56 21 -60 9 -32
60 -150 84 -196 l26 -49 -22 -18 c-11 -11 -27 -19 -35 -19 -8 0 -32 -9 -54
-21 -23 -11 -47 -18 -55 -15 -8 3 -14 -1 -14 -9 0 -8 -8 -15 -18 -15 -11 0
-33 -7 -51 -16 -29 -14 -50 -21 -74 -23 -5 -1 -6 -4 -4 -8 3 -5 -7 -9 -21 -10
-15 0 -28 -6 -30 -12 -2 -6 -15 -11 -28 -11 -13 0 -24 -4 -24 -8 0 -4 -12 -9
-27 -10 -16 -1 -29 -7 -31 -12 -2 -6 -10 -10 -19 -10 -8 0 -27 -7 -41 -15 -59
-32 -98 -43 -118 -32 -17 9 -17 9 -6 -5 11 -14 9 -17 -20 -23 -18 -4 -43 -14
-55 -22 -13 -9 -30 -13 -38 -9 -9 3 -13 2 -10 -4 3 -6 -1 -10 -9 -10 -9 0 -31
-9 -51 -20 -20 -11 -43 -20 -51 -20 -9 0 -28 -6 -42 -14 -49 -26 -100 -46
-116 -46 -9 0 -16 -4 -16 -9 0 -5 -15 -13 -33 -16 -17 -4 -34 -11 -37 -16 -3
-4 -17 -10 -30 -12 -14 -2 -42 -12 -63 -21 -20 -9 -52 -15 -70 -14 -33 1 -87
42 -87 65 0 7 -4 13 -8 13 -5 0 -7 13 -4 29 2 16 -1 32 -9 36 -8 6 -10 4 -4
-6 5 -9 5 -11 -2 -4 -5 6 -15 36 -22 68 -7 31 -17 57 -22 57 -5 0 -9 17 -10
38 0 30 -2 33 -9 17 -7 -17 -9 -16 -9 10 -1 17 -10 53 -21 81 -10 29 -16 54
-13 58 4 3 2 6 -4 6 -6 0 -14 17 -19 37 -4 21 -8 40 -9 43 0 3 -7 16 -14 30
-10 17 -11 25 -3 28 7 2 4 12 -8 25 -11 11 -20 29 -20 38 0 10 -4 21 -10 24
-6 3 -10 16 -10 28 0 13 -9 39 -19 60 -10 20 -15 37 -10 37 5 0 5 7 0 17 -24
47 -51 115 -51 131 0 10 -3 22 -7 26 -5 4 -8 11 -9 14 0 4 -4 20 -9 36 -4 16
-9 38 -10 50 -4 38 -6 41 -15 21 -8 -20 -9 -20 -9 0 -1 29 -43 159 -54 166 -5
4 -7 19 -5 33 4 18 1 26 -8 26 -8 0 -14 10 -14 23 0 13 -4 27 -8 33 -5 5 -15
35 -22 67 -7 31 -17 57 -22 57 -4 0 -8 7 -8 15 0 8 -4 23 -9 33 -19 38 -28 82
-24 109 6 32 48 93 65 93 6 0 18 8 27 18 9 9 41 37 71 62 87 71 90 74 119 100
44 40 83 65 95 62 6 -2 8 -1 4 3 -8 9 1 18 62 65 25 18 52 41 62 49 9 9 29 26
45 38 16 12 44 37 63 55 19 19 50 44 68 57 19 13 44 33 57 45 79 72 94 83 99
78 3 -3 6 2 6 12 0 9 4 15 8 12 5 -3 15 3 24 12 22 25 77 72 84 72 4 0 37 27
74 60 37 33 72 60 78 60 6 0 15 6 19 14 4 8 35 35 68 62 33 26 69 57 80 69 11
11 38 34 60 50 63 47 65 49 85 67 67 61 134 108 146 104 8 -3 14 -1 14 4 0 14
99 -27 131 -55 34 -28 112 -54 154 -51 27 2 102 35 81 36 -4 0 10 18 33 41 22
23 38 46 34 52 -4 6 0 8 10 4 11 -4 14 -2 11 7 -3 8 8 28 24 44 17 17 33 40
37 51 3 12 11 21 16 21 5 0 9 6 9 13 0 6 13 27 29 46 17 19 28 38 26 41 -2 4
5 13 16 20 10 8 19 19 19 25 0 7 11 22 25 35 14 13 25 28 25 34 0 6 15 21 33
34 25 18 41 22 71 17 21 -2 44 -8 50 -13z"/>
<path d="M621 3104 c0 -11 3 -14 6 -6 3 7 2 16 -1 19 -3 4 -6 -2 -5 -13z"/>
<path d="M861 2334 c0 -11 3 -14 6 -6 3 7 2 16 -1 19 -3 4 -6 -2 -5 -13z"/>
<path d="M4245 5228 c-42 -25 -83 -84 -76 -112 1 -4 -2 -13 -7 -20 -5 -6 -15
-29 -22 -51 -7 -22 -19 -51 -27 -64 -20 -31 -10 -39 62 -50 33 -5 78 -15 100
-21 22 -7 55 -14 73 -17 18 -3 35 -9 38 -14 3 -5 12 -9 20 -9 13 0 55 -17 139
-56 17 -8 40 -21 52 -30 21 -15 22 -15 18 5 -2 12 -11 28 -19 36 -8 8 -18 24
-21 36 -4 12 -13 18 -20 15 -9 -3 -12 0 -8 10 6 16 -118 269 -152 307 -39 46
-105 61 -150 35z m120 -46 c13 -11 21 -22 18 -26 -3 -3 -1 -6 5 -6 14 0 44
-69 38 -86 -3 -8 1 -11 10 -7 8 3 14 -1 14 -11 0 -18 40 -99 52 -104 4 -2 8
-15 8 -28 0 -17 4 -23 12 -18 7 5 9 2 5 -8 -3 -9 0 -21 6 -27 18 -18 -8 -13
-49 9 -19 11 -48 22 -62 24 -15 2 -43 10 -62 19 -42 18 -178 57 -201 57 -15 0
-13 10 9 76 20 59 28 72 34 57 5 -11 6 -7 2 13 -3 21 0 37 10 47 9 9 16 21 16
27 0 6 4 9 8 6 4 -2 14 -1 22 4 22 14 76 4 105 -18z"/>
<path d="M3505 4845 c-22 -8 -50 -15 -62 -15 -12 0 -25 -4 -28 -10 -3 -5 -19
-10 -35 -10 -16 0 -32 -4 -35 -10 -3 -5 -15 -10 -26 -10 -10 0 -19 -4 -19 -10
0 -5 -11 -10 -24 -10 -14 0 -28 -4 -31 -10 -3 -5 -15 -10 -26 -10 -10 0 -19
-4 -19 -10 0 -5 -7 -10 -15 -10 -8 0 -30 -9 -50 -20 -19 -11 -50 -28 -67 -38
-57 -33 -142 -89 -167 -111 -13 -12 -27 -21 -31 -21 -8 0 -208 -195 -230 -225
-35 -46 -86 -111 -102 -129 -19 -21 -23 -35 -10 -37 4 0 16 -3 27 -5 11 -3 36
-7 55 -10 19 -2 46 -8 60 -13 14 -5 61 -14 105 -21 44 -6 89 -14 100 -16 39
-10 161 -25 210 -27 49 -2 50 -1 53 28 4 35 38 156 57 200 8 17 23 55 35 85
25 64 91 203 100 210 4 3 28 37 53 75 54 82 126 160 156 170 12 3 21 13 21 21
0 17 -4 17 -55 -1z m-60 -65 c-4 -6 -11 -8 -16 -5 -5 4 -9 0 -9 -8 0 -8 -8
-23 -17 -35 -42 -49 -49 -58 -51 -67 -2 -5 -11 -20 -22 -32 -11 -13 -22 -34
-26 -48 -4 -14 -9 -24 -12 -21 -6 6 -49 -85 -81 -171 -13 -35 -27 -63 -32 -63
-5 0 -8 -3 -7 -7 2 -12 -12 -66 -23 -85 -5 -10 -9 -23 -9 -29 0 -6 -7 -35 -16
-65 l-15 -54 -78 0 c-42 0 -81 4 -86 9 -6 5 -37 11 -70 12 -33 1 -71 6 -84 11
-13 5 -36 11 -50 13 -14 2 -45 7 -68 11 -24 4 -40 10 -38 14 3 4 -1 8 -8 7
-54 -2 -61 15 -23 56 14 15 27 35 31 46 3 10 15 21 26 24 11 3 18 9 17 14 -4
11 43 63 52 58 4 -3 10 4 13 14 5 21 47 49 47 31 0 -6 -6 -13 -13 -16 -18 -6
-7 -136 11 -133 4 1 14 1 22 0 13 -1 13 -2 0 -11 -12 -8 -11 -10 6 -10 12 0
27 -7 34 -15 15 -18 34 -20 24 -3 -5 7 12 -4 37 -25 26 -20 51 -37 58 -37 6 0
11 -3 11 -7 0 -15 55 -11 72 4 9 8 22 12 27 8 6 -3 11 0 11 9 0 8 4 16 9 18
11 4 17 107 7 130 -4 9 -23 26 -42 37 -34 20 -34 20 -34 1 0 -11 7 -20 15 -20
8 0 15 -4 15 -10 0 -5 7 -10 15 -10 12 0 15 -13 15 -60 0 -43 -4 -60 -13 -60
-7 0 -22 -8 -33 -17 -21 -20 -54 -29 -54 -15 0 5 -13 15 -29 22 -29 12 -42 34
-34 58 7 19 26 14 48 -14 24 -30 57 -27 74 5 12 22 3 61 -14 61 -7 0 -15 5
-17 10 -4 12 -79 -24 -112 -53 -19 -16 -54 -15 -66 3 -3 4 -15 12 -27 19 -18
9 -23 20 -23 54 0 51 4 57 53 85 l39 22 29 -21 c16 -11 33 -18 38 -15 13 9 19
-39 7 -56 -12 -16 -36 -13 -36 5 0 22 -37 38 -65 27 -35 -13 -35 -63 1 -86 16
-11 28 -14 32 -7 4 5 22 16 40 24 17 8 32 17 32 21 0 5 7 8 15 8 8 0 15 5 15
10 0 6 7 10 15 10 8 0 15 5 15 10 0 6 -7 10 -15 10 -8 0 -15 5 -15 11 0 5 -4
7 -10 4 -5 -3 -10 -2 -10 3 0 14 -77 62 -100 62 -11 0 -20 -3 -20 -7 0 -13
-49 -32 -56 -22 -3 5 0 9 7 9 6 0 25 16 42 35 16 19 36 35 43 35 8 0 14 4 14
8 0 4 18 19 39 32 21 14 37 28 34 33 -2 4 8 7 22 7 14 0 24 4 21 9 -7 11 62
53 75 46 5 -4 9 2 9 11 0 10 3 15 6 11 3 -3 34 9 67 27 34 18 68 31 75 29 7
-3 12 3 12 14 0 15 2 16 10 3 5 -8 10 -10 10 -4 0 6 19 16 43 23 23 7 51 17
62 21 29 12 67 12 60 0z m-550 -451 c-9 -14 -34 2 -28 17 4 11 9 12 19 3 8 -6
11 -15 9 -20z m129 -58 c7 -10 -18 -34 -27 -25 -7 8 3 34 13 34 5 0 11 -4 14
-9z"/>
<path d="M4140 4851 c0 -5 12 -17 28 -26 23 -15 75 -66 128 -126 20 -22 84
-129 84 -140 0 -5 4 -9 8 -9 5 0 14 -16 22 -35 8 -19 17 -35 22 -35 4 0 8 -7
8 -15 0 -8 4 -23 9 -33 18 -33 40 -87 46 -115 4 -15 11 -30 16 -33 5 -3 9 -16
9 -29 0 -13 3 -26 8 -29 4 -2 16 -43 27 -90 14 -62 24 -86 35 -86 8 1 58 8
110 16 52 8 130 19 173 24 43 4 81 11 85 14 3 4 -4 23 -17 44 -12 20 -27 49
-32 65 -6 15 -15 27 -20 27 -5 0 -9 4 -9 10 0 10 -91 202 -100 210 -3 3 -25
45 -50 94 -48 95 -62 106 -200 172 -30 14 -63 30 -72 35 -10 5 -27 9 -38 9
-11 0 -20 4 -20 8 0 4 -21 13 -47 20 -27 8 -56 18 -65 23 -10 5 -28 9 -41 9
-13 0 -27 4 -32 9 -14 12 -75 22 -75 12z m220 -85 c18 -9 41 -16 51 -16 10 0
21 -4 24 -10 3 -5 17 -10 31 -10 13 0 24 -4 24 -8 0 -5 16 -14 35 -22 19 -8
35 -19 35 -26 0 -7 8 -10 18 -7 10 2 24 -3 31 -11 8 -9 17 -16 22 -16 11 0 58
-48 53 -53 -3 -2 2 -10 11 -17 8 -7 15 -21 15 -31 0 -11 5 -19 11 -19 6 0 9
-9 6 -20 -3 -11 -1 -20 4 -20 6 0 17 -15 25 -32 8 -18 18 -40 23 -48 5 -8 35
-69 67 -135 32 -66 63 -123 69 -127 5 -4 0 -8 -12 -8 -12 0 -25 -4 -28 -10 -3
-5 -34 -10 -69 -10 -34 0 -66 -4 -72 -10 -12 -12 -123 -16 -133 -4 -4 5 -16
36 -26 69 -11 33 -23 64 -27 69 -4 6 -8 20 -8 32 0 19 -13 58 -40 119 -25 58
-83 174 -100 200 -11 17 -28 46 -39 65 -11 19 -29 45 -40 57 -12 12 -21 27
-21 33 0 5 -4 10 -8 10 -5 0 -14 11 -20 24 -10 23 -9 23 23 16 18 -4 47 -15
65 -24z"/>
<path d="M3578 4738 c-75 -74 -138 -157 -170 -225 -13 -26 -26 -50 -29 -53
-18 -15 -109 -243 -109 -274 0 -9 -4 -24 -10 -34 -23 -40 -39 -106 -28 -113 6
-4 88 -8 181 -9 94 0 173 -2 176 -5 4 -2 54 -6 113 -10 l106 -7 -3 29 c-2 15
-5 152 -6 302 l-2 275 -44 54 c-24 30 -56 72 -70 93 -14 22 -29 39 -34 39 -4
0 -36 -28 -71 -62z m82 -4 c0 -8 5 -12 10 -9 6 3 10 2 10 -4 0 -6 10 -21 23
-34 72 -78 66 -48 66 -359 l0 -280 -192 6 c-229 7 -301 15 -305 36 -4 17 17
90 30 104 4 6 8 22 8 37 0 15 4 31 10 34 5 3 16 27 24 53 8 26 19 46 26 44 6
-1 9 2 6 7 -8 12 13 71 25 71 5 0 9 7 9 16 0 9 9 28 20 44 11 15 17 30 13 33
-3 4 2 9 11 13 9 3 16 10 16 16 0 5 6 15 13 23 6 7 23 28 37 47 40 53 86 98
93 91 4 -3 7 1 7 10 0 10 8 17 20 17 11 0 20 -7 20 -16z"/>
<path d="M3658 4428 c-16 -5 -28 -15 -28 -23 0 -7 -14 -19 -32 -28 -24 -12
-35 -13 -50 -4 -10 7 -18 15 -18 19 0 5 -6 8 -14 8 -8 0 -16 7 -20 15 -3 9
-17 15 -33 14 -16 0 -22 -3 -13 -6 8 -4 21 -14 27 -24 7 -9 31 -31 53 -49 44
-35 43 -35 110 33 20 20 45 37 54 37 9 0 14 5 11 10 -7 12 -11 12 -47 -2z"/>
<path d="M3410 4387 c0 -7 20 -33 45 -56 l46 -44 -23 -26 c-13 -14 -34 -35
-46 -47 -15 -13 -22 -29 -19 -40 4 -17 5 -17 6 -1 0 9 7 17 15 17 8 0 28 16
45 35 61 70 103 71 176 5 31 -28 61 -48 67 -44 6 4 -11 26 -41 54 -55 51 -63
65 -30 57 12 -3 19 -3 16 0 -3 2 8 19 24 35 57 60 28 66 -35 8 -36 -34 -50
-40 -86 -40 -36 0 -50 7 -89 41 -68 60 -71 62 -71 46z"/>
<path d="M3501 4191 c-28 -26 -51 -51 -51 -55 0 -11 23 -6 39 9 35 34 77 65
87 65 6 0 24 -16 41 -35 19 -21 37 -33 46 -29 11 4 2 17 -33 50 -26 24 -54 44
-62 44 -8 0 -38 -22 -67 -49z"/>
<path d="M4040 4774 c-6 -14 -10 -31 -10 -39 0 -8 -4 -17 -10 -20 -5 -3 -10
-15 -10 -26 0 -28 -48 -78 -84 -87 l-31 -8 -3 -293 -2 -293 107 7 c60 4 110 9
113 10 4 2 88 5 188 6 132 2 182 6 182 14 0 7 -18 68 -40 136 -47 145 -159
382 -177 375 -7 -3 -10 1 -6 10 3 8 -12 37 -35 67 -41 53 -154 167 -166 167
-4 0 -11 -12 -16 -26z m93 -80 c26 -25 47 -49 47 -54 0 -4 12 -20 26 -35 25
-27 49 -73 46 -87 -1 -5 3 -8 9 -8 6 0 9 -6 6 -13 -3 -8 -1 -20 4 -28 7 -11 9
-10 9 5 0 11 3 16 8 12 7 -8 8 -12 11 -48 2 -22 3 -22 11 -3 8 19 9 19 9 -3 1
-13 9 -37 18 -53 14 -23 15 -33 6 -48 -10 -16 -9 -18 7 -14 14 4 19 -3 25 -36
4 -25 11 -39 17 -34 7 3 8 1 4 -6 -4 -6 -2 -18 4 -26 7 -8 10 -23 8 -33 -3
-10 1 -24 9 -31 8 -7 13 -23 11 -34 -2 -12 3 -27 10 -32 15 -12 -2 -16 -80
-18 -27 -1 -48 -5 -48 -8 0 -3 -85 -7 -190 -8 l-190 -2 -1 103 c0 57 -1 172
-1 257 -1 141 0 154 18 164 48 27 104 107 104 147 0 34 34 23 83 -26z"/>
<path d="M4003 4433 c-10 -16 -20 -30 -23 -33 -16 -15 -40 -76 -40 -100 0 -22
13 -41 57 -82 31 -29 72 -68 91 -85 18 -18 39 -33 46 -33 7 0 31 16 53 35 22
19 44 31 48 27 5 -4 5 -2 1 5 -3 6 -1 17 6 23 77 64 89 86 78 135 -5 21 -13
42 -19 48 -6 6 -11 18 -11 26 0 9 -12 26 -27 38 -24 21 -36 23 -134 23 -107 0
-109 0 -126 -27z m255 -35 c12 -22 22 -44 22 -50 0 -5 9 -23 20 -38 19 -27 19
-29 3 -34 -10 -3 -42 -31 -72 -61 -30 -30 -58 -55 -62 -55 -4 0 -11 -9 -14
-20 -3 -11 -10 -20 -14 -20 -14 0 -181 171 -181 186 0 8 4 14 8 14 6 0 29 50
37 80 10 36 16 38 124 39 l108 0 21 -41z"/>
<path d="M4050 4367 c0 -21 11 -27 30 -17 13 7 21 5 30 -5 7 -9 10 -18 7 -22
-4 -3 -1 -13 6 -21 9 -12 9 -16 0 -19 -18 -6 -17 -89 0 -96 28 -11 38 9 36 69
-2 32 -7 64 -11 71 -9 11 18 26 38 22 22 -4 34 2 34 16 0 12 -16 15 -85 15
-64 0 -85 -3 -85 -13z"/>
<path d="M4025 4301 c-3 -5 -1 -12 5 -16 12 -7 30 2 30 16 0 12 -27 12 -35 0z"/>
<path d="M4210 4295 c0 -8 7 -15 15 -15 8 0 15 7 15 15 0 8 -7 15 -15 15 -8 0
-15 -7 -15 -15z"/>
<path d="M2434 3998 c-40 -77 -66 -141 -91 -223 -9 -27 -19 -59 -24 -70 -9
-23 -16 -63 -28 -151 -4 -34 -11 -65 -14 -70 -3 -5 -7 -40 -8 -77 l-4 -68 384
0 c211 1 386 3 389 5 2 3 6 56 8 118 5 144 10 207 24 288 7 36 14 87 16 115 3
27 10 55 15 62 18 21 1 31 -69 38 -37 3 -94 10 -127 15 -61 10 -114 17 -172
25 -18 2 -41 9 -52 14 -11 6 -31 11 -45 11 -24 0 -113 21 -148 35 -13 5 -25
-8 -54 -67z m138 11 c9 -5 30 -9 45 -9 16 0 33 -4 39 -9 5 -5 38 -12 73 -15
36 -4 69 -10 75 -13 5 -4 46 -10 90 -15 133 -13 156 -19 156 -37 0 -14 2 -14
11 -1 8 11 9 8 4 -15 -21 -102 -37 -208 -41 -265 -2 -30 -6 -101 -10 -157 -4
-68 -10 -103 -17 -103 -54 -1 -406 -1 -541 -1 -156 1 -168 2 -161 19 3 9 8 46
11 82 3 36 9 81 14 100 6 19 10 50 10 68 0 20 5 31 12 30 8 -2 11 8 10 29 -2
17 1 34 7 38 6 3 11 17 11 30 0 14 11 49 24 79 13 30 21 58 18 62 -4 4 -1 4 6
0 8 -5 12 0 12 13 0 12 4 21 9 21 5 0 9 6 8 13 -1 31 4 48 12 43 5 -3 11 3 14
14 4 16 11 18 43 13 22 -3 47 -10 56 -14z"/>
<path d="M2635 3875 c-22 -6 -50 -16 -63 -23 -35 -20 -92 -84 -92 -103 0 -10
-5 -19 -11 -21 -12 -4 -21 -148 -9 -148 4 0 10 -10 14 -22 19 -76 157 -157
232 -136 20 5 42 7 50 4 8 -3 14 -2 14 2 0 5 16 16 35 25 19 9 35 21 35 26 0
5 9 13 20 16 11 3 20 13 20 20 0 8 8 29 18 47 13 23 18 51 16 89 -1 55 -29
139 -46 139 -4 0 -4 7 -1 17 4 11 3 14 -6 9 -7 -5 -22 0 -34 11 -30 26 -66 43
-102 46 -17 2 -35 6 -40 8 -6 3 -28 0 -50 -6z m142 -46 c70 -39 113 -107 113
-180 0 -86 -75 -181 -152 -193 -7 -1 -19 -5 -27 -10 -23 -15 -130 23 -166 59
-66 66 -84 161 -43 232 27 47 77 93 101 93 9 0 17 5 17 10 0 19 117 11 157
-11z"/>
<path d="M2677 3770 c-5 -18 -11 -21 -31 -16 -19 5 -26 2 -26 -9 0 -8 5 -15
10 -15 14 0 13 -46 -2 -87 -8 -21 -19 -33 -30 -33 -10 0 -18 -7 -18 -15 0 -8
9 -15 20 -15 15 0 20 -7 20 -26 0 -14 4 -23 10 -19 6 3 10 15 10 26 0 10 5 19
10 19 6 0 10 -13 10 -30 0 -34 15 -40 23 -10 4 14 14 20 35 20 24 0 32 6 43
32 10 24 10 33 1 36 -17 5 -15 29 2 35 17 7 10 43 -10 51 -8 3 -14 17 -14 31
0 30 -15 33 -23 5 -3 -11 -10 -20 -17 -20 -6 0 -9 8 -6 18 3 9 2 23 -3 30 -6
10 -10 8 -14 -8z m53 -75 c16 -19 5 -35 -25 -35 -23 0 -40 24 -29 41 8 14 40
11 54 -6z m-31 -56 c52 -18 32 -59 -23 -45 -19 5 -22 11 -18 31 2 14 5 25 7
25 1 0 16 -5 34 -11z"/>
<path d="M4938 4004 c-6 -5 -63 -14 -223 -35 -38 -5 -79 -10 -90 -11 -21 -3
-22 -13 -11 -83 25 -143 48 -364 50 -468 l1 -67 346 -3 347 -2 -51 95 c-96
181 -147 283 -147 296 0 8 -4 14 -8 14 -4 0 -23 33 -41 73 -19 39 -42 83 -51
97 -10 14 -23 42 -31 63 -12 33 -16 37 -49 37 -20 0 -39 -3 -42 -6z m88 -86
c13 -26 24 -55 24 -64 0 -10 3 -15 6 -11 7 6 54 -81 54 -99 0 -7 7 -14 15 -18
8 -3 15 -13 15 -23 0 -17 13 -44 66 -141 13 -23 24 -49 24 -57 0 -8 4 -15 9
-15 10 0 62 -112 55 -119 -6 -7 -585 -1 -596 5 -4 3 -8 39 -8 80 0 41 -4 105
-10 142 -5 37 -12 94 -15 127 -3 33 -9 78 -13 100 -4 22 -8 54 -8 70 1 25 5
31 29 33 15 2 25 6 23 10 -2 4 21 8 52 10 66 3 210 27 219 36 10 10 34 -16 59
-66z"/>
<path d="M4843 3821 c-26 -27 -58 -61 -70 -75 -13 -15 -27 -25 -33 -21 -5 3
-10 0 -10 -7 0 -8 -5 -19 -12 -26 -6 -6 -13 -19 -14 -27 -3 -19 63 -88 77 -80
5 4 9 1 9 -4 0 -6 -6 -11 -12 -11 -7 0 -5 -5 5 -11 9 -5 17 -17 17 -25 0 -8 4
-13 10 -9 10 6 34 -16 59 -53 8 -11 18 -19 23 -16 4 3 8 -1 8 -8 0 -9 3 -9 10
2 9 13 11 13 20 0 8 -13 10 -12 10 3 0 9 5 17 11 17 15 0 160 150 169 175 9
26 -4 54 -40 83 l-29 22 -96 -98 c-53 -54 -101 -105 -105 -113 -5 -7 -11 -11
-13 -9 -2 3 -13 17 -24 33 l-21 27 96 95 c53 52 100 95 103 95 4 0 12 -7 19
-15 16 -19 30 -19 30 -1 0 8 -9 18 -20 21 -11 3 -25 15 -31 26 -40 75 -79 78
-146 10z m102 13 l24 -26 -65 -65 -65 -64 -19 23 c-11 13 -19 27 -20 32 0 4
23 31 50 58 28 27 50 54 50 59 0 17 21 9 45 -17z m-160 -134 c3 -11 11 -20 16
-20 15 0 10 -32 -8 -52 -21 -23 -32 -23 -54 4 -23 26 -23 32 -4 48 8 7 15 19
15 26 0 21 28 17 35 -6z m303 -15 l24 -25 -96 -96 c-96 -96 -101 -98 -137 -67
-14 12 -5 24 80 112 53 55 98 100 101 100 3 0 16 -10 28 -24z"/>
<path d="M3196 3942 c-3 -5 -6 -34 -7 -66 -1 -31 -6 -59 -11 -62 -4 -3 -8 -29
-8 -59 0 -30 -5 -66 -10 -80 -6 -15 -11 -70 -11 -124 -1 -53 -5 -117 -10 -143
-5 -26 -6 -53 -4 -60 4 -10 77 -12 331 -11 179 2 328 5 332 7 4 2 4 114 1 248
-3 133 -3 257 1 273 13 66 23 63 -238 65 -130 0 -255 5 -277 10 -50 12 -82 12
-89 2z m424 -48 c81 -4 138 -11 142 -18 4 -6 8 -122 8 -258 l0 -248 -72 -1
c-40 0 -138 -1 -218 -3 -80 -2 -182 -1 -228 2 l-83 5 2 106 c1 58 6 124 11
146 4 22 10 63 12 90 3 49 5 64 28 153 l11 43 126 -5 c69 -3 187 -8 261 -12z"/>
<path d="M3460 3821 c-135 -23 -205 -166 -141 -291 18 -36 74 -79 126 -96 52
-17 137 7 178 50 71 75 84 174 31 251 -13 20 -24 40 -24 44 0 5 -26 16 -57 26
-76 23 -72 23 -113 16z m91 -36 c50 -18 74 -41 95 -90 49 -117 -29 -235 -156
-235 -52 0 -130 34 -130 57 0 7 -4 13 -10 13 -5 0 -10 9 -10 19 0 11 -4 23
-10 26 -14 9 -12 80 3 118 18 41 56 78 99 93 45 17 68 17 119 -1z"/>
<path d="M3463 3728 c-13 -6 -23 -17 -23 -24 0 -11 5 -11 26 -2 19 9 30 9 44
0 26 -16 38 5 14 23 -22 17 -31 17 -61 3z"/>
<path d="M3397 3693 c-13 -12 -7 -33 8 -33 8 0 15 9 15 20 0 20 -11 26 -23 13z"/>
<path d="M3557 3694 c-11 -11 5 -34 24 -34 17 0 18 3 9 20 -11 20 -22 25 -33
14z"/>
<path d="M3440 3655 c0 -8 9 -20 20 -27 12 -8 20 -24 20 -40 0 -27 19 -41 21
-15 1 6 2 18 3 25 0 7 12 22 26 32 19 14 22 22 14 30 -9 9 -17 8 -33 -2 -17
-10 -25 -10 -41 0 -25 16 -30 15 -30 -3z"/>
<path d="M3380 3621 c0 -27 23 -63 47 -73 16 -7 35 -18 44 -25 16 -14 49 -8
49 8 0 5 -11 9 -25 9 -33 0 -75 38 -75 67 0 16 -6 23 -20 23 -11 0 -20 -4 -20
-9z"/>
<path d="M3562 3615 c-8 -10 -9 -15 -2 -15 6 0 2 -12 -9 -27 -25 -31 -20 -41
13 -23 26 13 38 42 29 66 -7 18 -14 17 -31 -1z"/>
<path d="M4426 3943 c-4 -5 -125 -10 -269 -13 l-262 -5 0 -292 c0 -161 3 -293
8 -293 4 0 156 0 338 0 l331 0 -6 68 c-3 37 -8 117 -11 177 -3 61 -10 119 -15
130 -5 11 -11 47 -14 80 -16 161 -14 155 -55 155 -21 0 -41 -3 -45 -7z m69
-96 c3 -34 10 -98 14 -142 4 -44 9 -73 11 -65 6 26 15 -193 10 -234 l-5 -39
-294 1 c-161 1 -295 3 -297 5 -4 4 -6 508 -2 512 2 2 67 5 145 6 79 1 148 6
155 10 7 5 68 8 134 8 l122 0 7 -62z"/>
<path d="M4187 3816 c-194 -42 -202 -316 -11 -378 71 -23 133 -8 188 46 23 22
44 39 49 38 4 -1 7 11 7 27 0 17 3 32 8 34 4 3 5 30 4 61 -2 31 -8 54 -13 50
-5 -3 -9 3 -9 14 0 27 -74 99 -107 104 -15 3 -35 8 -43 11 -8 3 -41 0 -73 -7z
m133 -41 c68 -35 101 -138 70 -220 -38 -99 -180 -128 -272 -55 -44 35 -78 166
-48 185 6 3 10 14 11 23 0 21 50 61 97 78 40 15 101 10 142 -11z"/>
<path d="M4146 3715 c-46 -45 -54 -90 -27 -142 17 -34 58 -73 76 -73 15 0 2
33 -14 37 -11 3 -27 20 -36 39 -22 47 -11 99 26 126 28 21 39 48 19 48 -5 0
-25 -16 -44 -35z"/>
<path d="M4265 3740 c-7 -12 2 -30 16 -30 14 0 39 -26 39 -39 0 -6 5 -11 10
-11 17 0 11 -53 -9 -87 -11 -17 -29 -34 -40 -38 -23 -7 -29 -35 -7 -35 8 0 30
16 50 36 32 32 36 42 36 88 -1 39 -6 57 -24 77 -30 35 -63 52 -71 39z"/>
<path d="M4202 3683 c-25 -27 -23 -50 5 -59 47 -15 52 -19 43 -34 -7 -12 -12
-12 -34 0 -37 19 -44 5 -11 -26 l27 -25 24 22 c13 12 24 33 24 45 0 18 -7 24
-35 30 -34 6 -44 17 -26 28 5 4 21 2 35 -4 32 -12 33 -2 2 28 -28 26 -25 26
-54 -5z"/>
<path d="M2271 3240 c-7 -5 -1 -71 18 -202 10 -69 33 -167 48 -208 3 -8 8 -23
10 -33 5 -26 39 -108 84 -205 l39 -82 30 15 c16 8 43 15 60 15 16 0 30 5 30
10 0 6 22 10 49 10 28 0 53 5 56 10 3 6 20 10 36 10 17 0 49 4 72 9 78 17 182
32 239 33 59 2 79 17 58 43 -6 7 -12 32 -14 56 -2 24 -11 96 -20 159 -8 63
-17 169 -19 235 l-4 120 -382 5 c-211 3 -386 3 -390 0z m136 -29 c157 11 333
10 333 -1 0 -5 9 -10 20 -10 11 0 20 5 20 10 0 13 166 13 191 0 14 -8 19 -7
19 1 0 7 3 9 8 5 6 -7 11 -49 28 -265 5 -63 17 -148 37 -268 6 -30 -34 -41
-156 -42 -34 -1 -46 -4 -41 -13 4 -6 3 -8 -4 -4 -12 7 -147 -11 -192 -26 -14
-5 -98 -23 -163 -34 -23 -4 -30 -1 -34 15 -3 12 -10 21 -15 21 -6 0 -8 9 -5
19 3 14 1 18 -9 14 -9 -3 -14 2 -14 16 0 12 -4 29 -9 39 -17 32 -51 125 -51
138 0 8 -4 14 -9 14 -5 0 -11 19 -14 43 -5 43 -11 77 -27 137 -10 38 -23 211
-15 195 3 -6 41 -8 102 -4z"/>
<path d="M2680 3119 c0 -5 -4 -8 -9 -5 -4 3 -17 -11 -27 -32 -10 -20 -22 -39
-25 -42 -3 -3 -14 -21 -25 -40 -10 -19 -24 -42 -31 -51 -18 -21 -12 -79 8 -79
8 0 33 -13 55 -29 51 -38 86 -47 103 -27 8 9 18 16 23 16 5 0 18 9 30 20 19
17 36 24 58 22 10 -1 9 57 0 63 -6 4 -10 17 -10 31 0 13 -4 24 -9 24 -4 0 -25
27 -46 61 -36 57 -60 79 -84 79 -6 0 -11 -5 -11 -11z m40 -25 c8 -30 62 -124
72 -124 4 0 8 -6 8 -13 0 -7 9 -22 19 -34 19 -20 18 -20 -50 -56 l-69 -36 -64
32 c-36 18 -65 35 -65 39 -1 3 21 42 47 85 26 43 53 91 60 106 13 31 33 32 42
1z"/>
<path d="M2564 2832 c1 -19 5 -28 14 -25 6 3 12 -2 12 -10 0 -8 7 -20 15 -27
8 -7 15 -21 15 -32 0 -10 4 -17 9 -13 5 3 18 -8 27 -25 19 -30 26 -35 37 -24
7 7 -64 115 -104 158 l-26 28 1 -30z"/>
<path d="M2821 2848 c0 -10 -5 -18 -10 -18 -13 0 -91 -104 -91 -122 0 -8 7
-15 15 -15 8 0 15 6 15 12 0 11 32 57 71 103 5 7 8 23 6 35 -3 15 -5 16 -6 5z"/>
<path d="M3451 3242 l-323 -2 7 -33 c4 -17 11 -95 16 -172 9 -156 23 -277 32
-291 3 -6 7 -31 8 -57 l3 -47 52 0 c29 0 55 4 59 9 3 6 109 10 247 11 132 0
244 2 247 4 3 2 3 122 -1 266 -5 167 -4 269 2 280 6 10 10 21 10 23 0 11 -51
12 -359 9z m-10 -31 c4 8 53 9 168 4 l162 -8 -2 -256 -2 -256 -132 0 c-73 0
-129 -2 -125 -5 5 -3 -42 -6 -104 -7 -63 -1 -127 -5 -144 -8 -34 -6 -40 2 -54
80 -29 160 -49 463 -29 451 6 -4 11 -3 11 1 0 5 55 5 122 1 86 -6 124 -5 129
3z"/>
<path d="M3348 3111 c-34 -21 -68 -60 -67 -75 0 -6 3 -6 6 2 2 6 13 12 23 12
9 0 24 9 31 20 13 19 26 21 160 23 120 2 148 5 162 18 15 16 5 17 -136 17
-129 1 -156 -2 -179 -17z"/>
<path d="M3652 3053 l-33 -33 -147 -2 c-81 -1 -155 -2 -164 -2 -9 0 -18 -7
-21 -15 -3 -14 15 -16 162 -13 l166 3 38 -37 c20 -20 37 -31 37 -25 0 7 5 9
10 6 6 -3 10 -2 10 3 0 5 -9 12 -20 15 -15 4 -18 10 -13 24 3 10 3 15 -2 11
-4 -4 -14 -3 -22 4 -11 9 -9 16 13 39 39 41 26 61 -14 22z"/>
<path d="M3280 2961 c0 -5 3 -11 8 -13 4 -2 18 -15 31 -30 l24 -27 -32 -36
c-17 -20 -31 -41 -31 -47 0 -10 13 -1 68 50 9 8 54 12 140 13 124 0 191 5 200
13 17 18 -28 24 -167 25 l-160 2 -31 29 c-32 30 -50 38 -50 21z"/>
<path d="M3651 2830 l-34 -39 -126 2 c-149 4 -220 -1 -200 -14 8 -5 88 -9 177
-9 l164 0 29 31 c16 17 29 40 29 50 0 24 1 25 -39 -21z"/>
<path d="M3890 2953 l0 -292 263 -5 c144 -2 283 -8 308 -11 l46 -7 7 49 c22
145 27 188 36 288 5 61 12 145 16 187 l7 77 -342 3 -341 3 0 -292z m636 99
c-7 -186 -24 -310 -49 -360 -9 -20 -16 -23 -42 -17 -16 4 -53 6 -81 5 -29 0
-82 4 -119 11 -47 8 -69 8 -74 1 -8 -13 -69 -13 -77 0 -3 4 -39 8 -80 8 l-74
0 -1 75 c0 41 -1 111 -1 155 0 44 1 125 1 181 l1 100 285 -3 c156 -1 287 1
291 5 19 19 25 -35 20 -161z"/>
<path d="M4204 3086 c-5 -6 -13 -19 -17 -30 -5 -13 -14 -17 -28 -13 -25 7 -51
-2 -44 -14 3 -4 -6 -16 -20 -25 -15 -10 -24 -25 -24 -38 2 -21 2 -21 6 1 4 19
7 21 24 10 21 -13 25 -42 9 -52 -6 -4 -17 -2 -24 4 -10 8 -17 7 -26 -4 -8 -9
-9 -15 -4 -14 21 4 34 -2 34 -16 0 -8 5 -15 10 -15 6 0 10 -7 10 -16 0 -13 8
-15 34 -12 25 3 37 -1 45 -14 9 -15 8 -20 -4 -24 -21 -8 -19 -20 4 -20 11 0
18 4 15 8 -9 14 47 3 57 -12 9 -13 10 -13 7 0 -5 38 32 85 47 59 4 -5 11 -7
16 -4 5 4 9 2 9 -4 0 -5 -4 -11 -9 -13 -5 -1 -3 -9 5 -16 12 -11 14 -7 14 28
0 27 4 40 14 40 7 0 16 8 20 18 3 9 9 24 12 32 5 12 4 13 -7 3 -23 -22 -41
-15 -37 14 3 28 28 45 28 19 0 -9 4 -16 9 -16 4 0 8 13 7 28 -1 21 -6 28 -21
28 -15 -1 -21 7 -23 27 -2 15 -8 25 -13 22 -5 -4 -9 -2 -9 4 0 5 6 12 13 14 7
3 4 6 -7 6 -14 1 -17 -4 -12 -24 5 -20 3 -23 -11 -18 -38 13 -46 26 -26 41 17
14 17 14 -6 9 -13 -3 -33 -2 -45 2 -13 6 -25 4 -32 -3z m52 -40 c1 -11 -5 -16
-22 -16 -17 0 -24 6 -24 18 0 10 3 22 6 25 10 10 37 -9 40 -27z m-39 -27 c8
-8 17 -8 33 1 26 14 41 0 33 -31 -4 -14 0 -19 16 -19 14 0 21 -6 21 -19 0 -25
-15 -34 -41 -26 -14 5 -18 12 -14 26 4 13 2 19 -8 19 -9 0 -17 6 -19 12 -6 17
-32 -9 -40 -39 -7 -25 2 -28 55 -24 23 2 27 -2 27 -23 0 -32 -14 -40 -34 -20
-15 14 -17 14 -32 0 -20 -20 -34 -12 -34 20 0 13 -3 24 -7 24 -32 1 -39 50 -7
50 9 0 14 11 14 30 0 31 17 39 37 19z m-50 -16 c4 -12 -34 -29 -44 -19 -3 3
-3 12 1 21 7 18 37 17 43 -2z m178 -3 c0 -18 -16 -22 -35 -10 -13 9 -13 11 0
20 19 12 35 8 35 -10z m-185 -111 c0 -20 -24 -26 -35 -9 -4 6 -4 17 -1 25 7
20 36 7 36 -16z m184 23 c2 -4 -1 -18 -8 -31 -10 -19 -15 -21 -22 -10 -12 19
-12 33 1 41 13 10 23 10 29 0z m-100 -58 c17 -7 10 -34 -9 -34 -17 0 -28 17
-20 30 7 12 8 12 29 4z"/>
<path d="M4120 3069 c0 -5 5 -7 10 -4 6 3 10 8 10 11 0 2 -4 4 -10 4 -5 0 -10
-5 -10 -11z"/>
<path d="M4385 2840 c-3 -5 -1 -10 4 -10 6 0 11 5 11 10 0 6 -2 10 -4 10 -3 0
-8 -4 -11 -10z"/>
<path d="M4671 3240 c-5 -3 -12 -81 -18 -175 -13 -217 -21 -303 -32 -324 -12
-23 -22 -111 -13 -112 4 0 43 -4 87 -9 44 -5 108 -12 143 -16 34 -4 65 -11 68
-15 3 -5 27 -9 54 -9 27 0 51 -4 54 -9 3 -4 27 -11 53 -14 27 -3 57 -8 68 -12
16 -5 23 1 34 27 8 18 39 74 70 123 30 50 68 115 84 145 16 30 40 69 53 86 13
17 20 34 17 38 -4 3 -1 6 5 6 7 0 12 17 12 44 0 25 5 48 10 51 14 8 13 118 -1
149 l-12 26 -364 2 c-201 2 -368 1 -372 -2z m371 -33 c216 2 336 -1 344 -8 7
-5 11 -23 9 -40 -2 -16 0 -29 5 -29 6 0 10 -8 10 -17 0 -15 -2 -16 -10 -3 -7
11 -10 -3 -10 -47 0 -34 -4 -65 -10 -68 -5 -3 -10 -13 -10 -21 0 -8 -9 -24
-20 -36 -11 -12 -20 -28 -20 -35 0 -7 -5 -13 -12 -13 -6 0 -9 -3 -5 -6 3 -4
-9 -31 -28 -60 -19 -30 -35 -60 -35 -67 0 -8 -4 -7 -10 3 -8 12 -10 11 -10 -7
0 -23 -36 -92 -55 -105 -6 -5 -6 -8 0 -8 6 0 3 -6 -6 -13 -8 -7 -18 -19 -21
-27 -3 -9 -18 -16 -32 -18 -16 -1 -25 2 -21 8 4 6 -8 10 -27 10 -18 0 -48 4
-65 9 -21 6 -35 6 -39 -1 -4 -6 -10 -6 -17 1 -6 6 -26 11 -45 11 -18 0 -41 4
-50 9 -9 5 -46 11 -82 14 -36 3 -80 11 -98 17 -29 11 -32 16 -28 39 3 14 7 43
8 64 1 20 5 37 9 37 3 0 7 30 8 67 1 36 4 70 7 74 3 5 7 59 10 121 5 112 13
172 20 153 3 -6 122 -9 336 -8z"/>
<path d="M4948 3117 c-27 -6 -48 -14 -48 -19 0 -4 -6 -8 -14 -8 -24 0 -96 -78
-96 -105 0 -13 -4 -27 -10 -30 -11 -7 -13 -76 -4 -124 4 -17 10 -28 15 -25 5
3 9 -2 9 -12 0 -24 75 -86 129 -106 52 -20 83 -22 109 -9 9 6 29 12 43 15 46
10 129 117 129 166 0 6 3 9 8 7 4 -3 7 17 7 44 0 27 -4 49 -8 49 -5 0 -5 -5
-1 -12 4 -7 3 -8 -5 -4 -6 4 -9 11 -6 16 20 32 -93 150 -149 156 -12 1 -30 4
-41 7 -11 2 -41 0 -67 -6z m145 -45 c64 -43 89 -89 90 -171 0 -65 -13 -102
-51 -139 -75 -73 -202 -74 -272 -2 -39 40 -54 77 -55 138 0 76 19 118 74 158
42 30 52 34 116 34 51 0 77 -5 98 -18z"/>
<path d="M4975 2993 c-9 -55 -32 -103 -50 -103 -8 0 -15 -4 -15 -10 0 -5 7
-10 16 -10 11 0 14 -6 9 -22 -4 -13 -11 -27 -16 -33 -5 -5 -9 -16 -9 -25 0
-22 166 -16 174 7 11 27 -5 35 -55 29 -49 -7 -49 -7 -49 22 0 32 22 58 40 47
5 -3 10 0 10 8 0 8 -7 17 -15 21 -13 4 -12 12 5 51 11 26 20 49 20 51 0 2 -13
4 -30 4 -26 0 -30 -4 -35 -37z"/>
<path d="M3767 2574 c-4 -5 -368 -21 -509 -23 -15 -1 -29 -5 -32 -9 -3 -5 6
-42 19 -83 14 -41 30 -90 36 -109 15 -50 61 -163 71 -175 4 -5 8 -15 8 -22 0
-7 18 -42 40 -78 22 -36 40 -70 40 -75 0 -6 4 -10 8 -10 4 0 16 -15 27 -32 37
-63 158 -173 227 -206 114 -55 103 -95 101 390 -2 233 -3 426 -3 431 0 8 -24
10 -33 1z m0 -426 c0 -214 -1 -388 -3 -388 -13 0 -84 36 -84 43 0 4 -4 6 -9 3
-11 -7 -161 139 -161 156 0 6 -8 18 -18 27 -23 21 -82 126 -82 146 0 9 -4 13
-10 10 -5 -3 -10 1 -10 10 0 8 -14 41 -31 73 -16 31 -28 64 -26 74 3 12 0 15
-11 11 -9 -4 -13 -2 -9 4 4 5 -3 34 -15 64 -12 30 -22 74 -22 99 l-1 45 130 3
c72 2 135 5 140 6 6 2 57 3 115 2 l105 -1 2 -387z"/>
<path d="M3422 2362 c-12 -9 -22 -24 -23 -32 -2 -14 2 -27 43 -116 10 -22 18
-50 18 -61 0 -12 7 -24 16 -27 13 -5 14 -9 3 -22 -10 -12 -10 -15 1 -12 7 2
17 -8 21 -22 4 -14 8 -18 9 -10 1 8 6 4 10 -10 8 -23 8 -24 9 -3 1 12 -12 50
-28 85 -30 64 -42 95 -46 113 -2 6 -11 28 -21 50 -10 22 -18 45 -18 50 -1 12
125 7 139 -6 5 -5 24 -9 41 -9 18 0 36 -5 39 -10 4 -6 12 -9 19 -8 14 3 66
-46 66 -63 0 -11 -32 -60 -60 -90 -8 -9 -29 -32 -46 -50 -17 -19 -39 -47 -49
-62 l-18 -28 27 12 c14 7 26 16 26 21 0 8 17 30 61 76 59 62 99 142 71 142 -6
0 -13 11 -16 24 -5 21 -41 45 -55 37 -2 -2 -7 2 -10 7 -3 6 -26 13 -51 16 -94
12 -116 16 -136 21 -13 3 -31 -2 -42 -13z"/>
<path d="M3511 2304 c0 -5 13 -19 29 -32 25 -20 32 -21 50 -10 29 18 25 38 -7
38 -16 0 -38 3 -50 6 -13 4 -23 2 -22 -2z"/>
<path d="M3480 2265 c11 -20 20 -42 20 -50 0 -8 5 -15 10 -15 6 0 10 -10 10
-22 0 -13 8 -33 18 -45 17 -23 17 -22 15 32 -1 50 -5 58 -42 95 -22 22 -43 40
-45 40 -3 0 3 -16 14 -35z"/>
<path d="M3630 2265 c-11 -13 -9 -15 15 -15 16 0 25 5 23 12 -7 19 -24 20 -38
3z"/>
<path d="M3614 2218 c-3 -5 -9 -6 -14 -3 -11 7 -20 -20 -20 -63 l0 -36 17 24
c9 14 30 37 45 52 15 14 28 29 28 32 0 9 -51 3 -56 -6z"/>
<path d="M3897 2573 c-4 -3 -7 -197 -7 -430 l0 -423 24 0 c14 0 28 5 31 10 3
6 15 10 26 10 20 0 54 16 77 38 7 6 17 12 20 12 13 0 105 94 148 151 45 57 91
133 101 162 3 9 9 17 14 17 5 0 9 7 9 15 0 8 8 29 18 47 18 32 88 224 96 263
3 11 11 36 19 55 12 28 13 37 2 47 -9 8 -15 9 -24 0 -8 -8 -11 -8 -11 0 0 8
-58 12 -192 13 -106 0 -224 5 -263 10 -87 12 -80 11 -88 3z m511 -54 c2 -4 9
-6 17 -3 9 4 12 -4 10 -28 -2 -18 -4 -35 -5 -38 -1 -3 -2 -8 -1 -12 0 -5 -3
-8 -9 -8 -5 0 -10 -11 -10 -25 0 -14 -4 -33 -9 -43 -5 -9 -20 -44 -32 -77 -12
-33 -28 -69 -36 -80 -7 -11 -13 -28 -13 -38 0 -10 -4 -15 -10 -12 -5 3 -10 0
-10 -8 0 -21 -45 -102 -101 -181 -27 -39 -49 -68 -49 -65 0 3 -27 -21 -60 -53
-34 -32 -67 -58 -74 -58 -7 0 -19 -6 -25 -14 -7 -8 -24 -14 -38 -13 l-26 2 0
195 c1 107 4 196 7 198 16 6 25 0 28 -20 2 -14 16 -30 37 -40 18 -9 43 -25 55
-36 11 -11 27 -17 34 -15 6 3 12 -1 12 -7 0 -10 3 -10 14 -1 11 9 15 9 18 0 5
-14 46 6 66 34 7 9 21 17 31 17 27 0 61 43 68 85 4 28 3 36 -5 31 -7 -4 -12
-1 -12 9 0 9 5 13 10 10 6 -4 10 9 10 30 0 41 -27 95 -47 95 -7 0 -13 5 -13
10 0 6 -9 10 -20 10 -10 0 -23 7 -28 16 -14 25 -90 29 -132 7 -61 -32 -90 -55
-90 -69 0 -8 -5 -14 -11 -14 -6 0 -9 -6 -6 -14 3 -8 1 -17 -6 -19 -9 -3 -9
-11 0 -35 7 -21 8 -34 1 -38 -5 -3 -11 -4 -13 -2 -8 7 -9 114 -2 126 5 6 5 12
0 12 -4 0 -7 39 -6 87 1 49 3 94 3 101 0 11 45 12 238 6 130 -4 238 -10 240
-15z m-248 -139 c0 -5 7 -10 15 -10 19 0 8 -30 -19 -50 -28 -20 -47 -19 -73 4
-26 22 -30 46 -8 46 8 0 15 5 15 10 0 6 16 10 35 10 19 0 35 -4 35 -10z m106
-86 c13 -27 14 -37 4 -49 -7 -8 -18 -15 -24 -15 -41 1 -70 74 -41 104 21 20
38 9 61 -40z m-222 40 c22 -9 20 -46 -5 -78 -24 -31 -50 -33 -67 -6 -7 12 -8
20 -2 20 5 0 10 8 10 17 0 17 27 53 41 53 4 0 14 -3 23 -6z m127 -65 c33 -51
12 -95 -49 -101 -27 -2 -35 2 -50 27 -18 29 -18 31 0 60 15 26 23 31 54 30 19
-1 40 -8 45 -16z m-131 -74 c6 -8 13 -29 13 -47 2 -29 -2 -33 -24 -36 -21 -2
-29 3 -43 31 -24 52 -21 67 13 67 16 0 34 -7 41 -15z m236 1 c11 -29 -35 -90
-64 -84 -23 4 -27 43 -8 74 18 27 63 33 72 10z m-116 -71 c33 -17 33 -17 24
-39 -7 -18 -88 -23 -113 -7 -19 12 -7 39 21 51 32 12 35 12 68 -5z"/>
<path d="M3088 2535 c-3 -3 -43 -10 -89 -15 -46 -6 -111 -15 -144 -20 -33 -5
-80 -12 -105 -15 -25 -4 -54 -10 -65 -15 -11 -5 -40 -11 -64 -12 -46 -3 -66
-23 -34 -35 10 -4 79 -44 153 -90 74 -47 144 -90 155 -96 11 -7 22 -14 25 -17
10 -10 65 -41 83 -47 9 -3 17 -9 17 -13 0 -4 14 -13 30 -20 17 -7 30 -16 30
-21 0 -5 5 -9 11 -9 5 0 40 -20 77 -44 37 -24 81 -50 97 -59 17 -9 44 -30 62
-46 46 -44 57 -20 15 30 -23 26 -82 139 -82 155 0 8 -4 14 -10 14 -5 0 -10 8
-10 18 0 10 -4 22 -9 27 -5 6 -14 26 -19 45 -6 19 -19 60 -30 90 -36 103 -49
147 -51 180 -1 18 -29 28 -43 15z m20 -42 c-3 -9 30 -119 43 -145 5 -10 9 -25
9 -33 0 -8 4 -23 9 -33 16 -29 36 -87 33 -94 -1 -5 3 -8 8 -8 6 0 10 -7 10
-15 0 -9 6 -26 14 -38 8 -12 16 -31 18 -42 2 -11 8 -23 13 -27 6 -5 3 -8 -6
-8 -8 0 -24 8 -35 18 -10 10 -34 24 -51 31 -18 7 -33 17 -33 21 0 5 -13 13
-30 18 -28 10 -39 18 -75 50 -7 6 -16 12 -19 12 -3 0 -30 16 -60 35 -30 19
-60 35 -66 35 -5 0 -10 6 -10 13 0 7 -9 13 -20 14 -11 1 -29 11 -42 22 -12 12
-25 21 -29 21 -12 0 -113 71 -121 85 -7 12 84 34 217 51 28 4 57 10 65 15 19
10 161 12 158 2z"/>
<path d="M4570 2522 c0 -36 -35 -167 -61 -227 -4 -11 -20 -49 -34 -85 -15 -36
-35 -82 -46 -102 -10 -21 -16 -38 -13 -38 2 0 0 -6 -6 -12 -5 -7 -37 -53 -69
-103 -66 -102 -146 -195 -167 -195 -8 0 -14 -4 -14 -10 0 -5 13 -10 29 -10 17
0 33 5 36 10 3 6 19 10 34 10 15 0 31 4 36 8 6 4 45 19 87 33 43 13 78 27 78
32 0 4 6 7 13 7 36 0 282 140 351 200 58 50 76 67 76 74 0 3 12 25 27 49 15
23 33 51 39 62 30 54 56 98 93 160 23 37 41 68 41 70 0 2 -17 6 -37 9 -21 4
-63 11 -93 17 -56 10 -123 21 -240 38 -36 5 -86 13 -112 17 -44 6 -48 5 -48
-14z m64 -34 c-6 -10 -4 -10 7 0 7 6 36 12 64 11 37 0 45 -3 30 -9 -19 -8 2
-10 132 -13 12 -1 20 -5 17 -9 -3 -4 12 -8 33 -8 21 0 56 -5 78 -12 22 -6 43
-11 48 -10 12 3 8 -15 -6 -30 -14 -14 -44 -69 -72 -130 -10 -21 -21 -38 -26
-38 -5 0 -9 -6 -9 -14 0 -8 -9 -24 -20 -37 l-19 -24 -1 56 c0 45 -6 64 -31
102 -17 26 -35 44 -40 41 -5 -3 -9 -1 -9 4 0 14 -28 24 -72 27 -20 2 -42 6
-49 10 -8 6 -10 4 -4 -5 5 -9 2 -10 -14 -5 -12 4 -21 2 -21 -4 0 -6 -6 -11
-13 -11 -8 0 -22 -9 -32 -20 -10 -12 -25 -18 -33 -15 -9 3 -12 -1 -7 -14 3
-11 1 -22 -5 -26 -5 -3 -10 -20 -10 -36 0 -20 -4 -28 -11 -23 -15 9 -3 -48 19
-96 9 -19 17 -39 17 -45 1 -5 6 -9 13 -7 7 1 12 -2 12 -7 0 -14 76 -41 115
-41 18 0 46 5 62 11 25 9 24 7 -12 -25 -22 -19 -43 -35 -48 -36 -4 0 -26 -13
-49 -30 -22 -16 -47 -30 -55 -30 -7 0 -13 -4 -13 -10 0 -5 -12 -13 -27 -16
-15 -4 -34 -13 -41 -21 -7 -7 -25 -16 -40 -19 -15 -3 -39 -12 -54 -20 -14 -8
-33 -14 -42 -14 -9 0 -16 -4 -16 -8 0 -10 -89 -36 -97 -28 -8 7 44 86 57 86 6
0 10 5 10 10 0 20 33 61 40 50 4 -6 7 3 7 20 0 18 4 35 10 38 8 6 24 37 92
183 11 25 21 53 21 62 0 9 5 17 10 17 6 0 10 9 10 19 0 11 11 50 24 88 13 37
27 80 30 96 4 18 13 27 27 27 13 0 18 -4 13 -12z m163 -137 c39 -33 73 -92 73
-128 0 -52 -60 -133 -100 -133 -11 0 -20 -4 -20 -10 0 -14 -45 -12 -83 4 -66
28 -96 70 -98 139 -2 48 14 82 59 124 21 19 36 23 86 23 44 -1 67 -6 83 -19z"/>
<path d="M4676 2250 c-16 -33 -33 -60 -38 -60 -4 0 -8 -6 -8 -13 0 -23 68 -8
76 17 4 11 9 23 13 26 3 3 12 15 19 28 10 18 10 26 0 42 -20 31 -31 24 -62
-40z"/>
<path d="M4750 2205 c0 -8 -4 -15 -10 -15 -5 0 -10 -6 -10 -13 0 -9 11 -12 35
-9 39 5 39 5 25 33 -13 23 -40 26 -40 4z"/>
<path d="M4738 1877 c-32 -30 -117 -79 -178 -103 -25 -10 -47 -20 -50 -23 -6
-7 -86 -37 -155 -58 -27 -8 -59 -19 -70 -23 -11 -5 -38 -11 -60 -15 -22 -3
-67 -10 -100 -16 -33 -6 -98 -12 -145 -14 -49 -2 -86 -8 -88 -14 -2 -6 3 -11
10 -11 14 0 148 -81 310 -186 37 -24 72 -44 78 -44 5 0 10 -4 10 -10 0 -5 9
-10 19 -10 11 0 22 -4 25 -9 9 -14 88 9 113 32 20 18 88 128 165 267 14 27 39
68 55 92 16 24 35 55 42 70 8 15 23 37 33 48 11 11 18 28 16 36 -2 13 -8 11
-30 -9z m-58 -91 c0 -3 -7 -12 -16 -21 -9 -9 -23 -33 -30 -53 -7 -20 -13 -32
-14 -27 0 6 -7 -3 -15 -20 -15 -31 -20 -40 -67 -112 -16 -23 -28 -46 -28 -52
0 -6 -3 -11 -8 -11 -4 0 -18 -21 -31 -46 -42 -78 -109 -95 -177 -44 -21 16
-45 30 -51 30 -7 0 -13 4 -13 8 0 5 -16 14 -35 22 -19 8 -35 20 -35 27 0 8 -3
12 -7 10 -5 -2 -21 4 -38 14 -16 11 -43 24 -58 30 -22 9 -26 14 -15 20 9 6 6
9 -11 9 -47 0 -4 24 57 31 31 3 82 13 112 22 30 8 72 18 94 21 21 4 50 12 65
18 14 6 35 13 46 15 10 2 22 9 26 15 4 6 16 8 28 5 12 -3 19 -1 15 4 -3 5 4 9
15 9 11 0 23 5 26 10 3 6 18 10 32 10 15 0 23 3 20 7 -9 8 52 35 63 28 5 -3
12 0 16 6 5 8 3 9 -6 4 -9 -5 -11 -4 -6 3 7 11 46 17 46 8z"/>
<path d="M4171 967 c-12 -12 -15 -64 -3 -69 10 -4 92 -137 92 -149 0 -5 5 -9
10 -9 6 0 10 -6 10 -13 0 -7 9 -23 20 -35 11 -12 20 -24 20 -26 0 -16 73 -116
84 -116 17 0 42 29 51 60 4 14 16 41 26 60 11 19 19 38 19 43 0 4 13 35 30 68
16 33 29 60 29 62 0 1 9 22 19 46 16 35 18 49 9 68 l-10 24 -197 -1 c-132 -1
-201 -5 -209 -13z m219 -20 c186 3 187 3 147 -80 -41 -84 -87 -194 -87 -206 0
-6 -4 -11 -9 -11 -5 0 -11 -13 -14 -30 -4 -16 -13 -30 -21 -30 -16 0 -29 27
-20 41 3 5 -1 9 -8 9 -13 1 -58 63 -58 81 0 6 -5 7 -11 3 -8 -5 -10 1 -7 19 3
16 1 25 -6 24 -6 -1 -10 6 -9 16 0 10 -1 16 -4 13 -5 -5 -33 18 -33 28 0 3
-13 27 -30 53 -34 53 -37 65 -15 57 10 -4 15 0 16 12 0 11 3 14 5 9 3 -7 62
-10 164 -8z"/>
<path d="M4222 900 c0 -14 2 -19 5 -12 2 6 2 18 0 25 -3 6 -5 1 -5 -13z"/>
</g>
</svg>
